<svg width="200" height="200" viewBox="0 0 800 800" fill="none" xmlns="http://www.w3.org/2000/svg">
<filter id='shadow' color-interpolation-filters="sRGB">
    <feDropShadow dx="1" dy="1" stdDeviation="1" flood-opacity="0.1"/>
</filter>
<circle filter="url(#shadow)" stroke-width="20px" stroke="white" cx="400" cy="400" r="372" fill="white"/>
<path d="M397.975 541.425C320.63 541.425 257.694 478.658 257.694 401.506C257.694 324.342 320.63 261.563 397.975 261.563C461.829 261.563 515.803 304.343 532.724 362.665H587C568.932 275.068 491.056 209 397.975 209C291.572 209 205 295.356 205 401.506C205 507.644 291.572 594 397.975 594C491.056 594 568.932 527.944 587 440.347H532.724C515.803 498.657 461.829 541.425 397.975 541.425Z" fill="#435363"/>
<path d="M304 496.132C328.082 520.13 361.336 535 398 535V479.598C376.631 479.598 357.279 470.949 343.269 457L304 496.132Z" fill="#435363"/>
<path d="M265 401.341C265 420.419 269.058 438.57 276.286 455L327.148 432.576C322.945 423.019 320.592 412.463 320.592 401.341C320.592 358.479 355.256 323.741 398 323.741V268C324.662 268 265 327.822 265 401.341Z" fill="#F38B00"/>
<path d="M446.337 277L426 329.298C442.608 335.779 456.469 347.736 465.281 363H526C514.016 323.616 484.383 291.864 446.337 277Z" fill="#435363"/>
<path d="M426 473.71L446.324 526C484.371 511.138 514.004 479.378 526 440H465.281C456.444 455.274 442.596 467.241 426 473.71Z" fill="#F38B00"/>
<path d="M151.166 476.221C150.282 473.284 149.433 470.323 148.646 467.338C148.597 467.155 148.549 466.973 148.5 466.791C147.773 464.024 147.107 461.257 146.464 458.466C146.331 457.895 146.21 457.325 146.089 456.755C145.555 454.364 145.071 451.949 144.598 449.533C144.392 448.453 144.21 447.373 144.029 446.293C143.689 444.363 143.35 442.446 143.047 440.492C142.793 438.829 142.574 437.179 142.356 435.516C140.829 424.181 140.005 412.663 140.017 401H87.0001C86.988 413.719 87.7878 426.28 89.2784 438.683C89.3026 438.95 89.3511 439.218 89.3874 439.485C89.7994 442.858 90.2599 446.232 90.781 449.57C90.9264 450.492 91.084 451.415 91.2415 452.349C91.702 455.092 92.1746 457.835 92.7078 460.565C92.9744 462.022 93.2895 463.454 93.5925 464.898C94.0408 467.07 94.5013 469.243 94.9982 471.403C95.4344 473.296 95.907 475.19 96.3918 477.083C96.8159 478.77 97.2279 480.457 97.6763 482.144C98.2822 484.377 98.9245 486.586 99.5668 488.807C99.8334 489.729 100.076 490.676 100.354 491.586H100.379C104.038 503.71 108.377 515.543 113.418 527L162 505.604C157.819 496.113 154.208 486.282 151.166 476.221Z" fill="#435363"/>
<path d="M398.099 660.082C326.825 660.082 262.215 630.997 215.411 584.08L178 621.573C234.341 678.036 312.133 713 398.099 713C556.859 713 687.842 593.904 707 440H653.702C634.869 564.408 527.427 660.082 398.099 660.082Z" fill="#F38B00"/>
<path d="M397.955 142.906C455.82 142.906 509.271 162.078 552.383 194.434L584 151.942C532.106 113.042 467.714 90 397.955 90C265.951 90 153.163 172.444 108 288.792L157.228 308C194.804 211.465 288.545 142.906 397.955 142.906Z" fill="#F38B00"/>
<path d="M653.499 363H707C701.268 317.163 685.539 274.418 662.055 237L617 265.021C635.395 294.287 648.083 327.466 653.499 363Z" fill="#435363"/>
<path d="M593.448 363H647C633.026 273.302 571.531 199.133 489.124 167L470 216.124C532.667 240.565 580.066 295.714 593.448 363Z" fill="#F38B00"/>
<path d="M397.988 202.441L398 150H397.988C291.183 150 199.693 216.435 163 309.981L212.097 329C241.132 255.003 313.503 202.441 397.988 202.441Z" fill="#435363"/>
<path d="M198.658 402H146C146 507.475 211.683 597.922 304.444 635L324 586.32C250.615 556.985 198.658 485.438 198.658 402Z" fill="#F38B00"/>
<path d="M398 600.362V653C523.725 653 628.231 560.489 647 440H593.516C575.374 531.329 494.611 600.362 398 600.362Z" fill="#435363"/>
</svg>
