<svg width="210" height="213" viewBox="0 0 210 213" fill="none" xmlns="http://www.w3.org/2000/svg">
<filter id='shadow' color-interpolation-filters="sRGB">
    <feDropShadow dx="1" dy="1" stdDeviation="1" flood-opacity="0.1"/>
</filter>
<path d="M191.902 10.1125C181.336 10.4128 141.076 14.0462 104.411 50.7109L104.394 50.7275C95.4694 59.7288 87.5464 68.986 80.896 78.0447C75.5193 75.549 69.9619 74.5122 64.4864 74.52C50.4525 74.4991 36.9588 81.4082 27.4086 87.766C22.5434 91.0049 18.5008 94.2371 15.6715 96.661C14.2539 97.8754 13.1334 98.8934 12.3584 99.6166C11.9707 99.9783 11.6689 100.267 11.4591 100.47C11.3542 100.571 11.2722 100.652 11.2139 100.709L11.1444 100.778L11.1231 100.799L11.1159 100.806L11.1131 100.809C11.112 100.81 11.1109 100.811 15 104.7L11.1109 100.811C9.25348 102.668 8.96877 105.58 10.4312 107.762C11.8897 109.938 14.6797 110.783 17.0992 109.784C17.1022 109.782 17.1051 109.781 17.1081 109.78M191.902 10.1125L17.1097 109.779L17.1081 109.78M191.902 10.1125C192.519 9.94224 193.139 9.78507 193.762 9.64111C195.598 9.21713 197.522 9.76203 198.863 11.0852C200.204 12.4084 200.774 14.3257 200.375 16.1667L195 15C200.375 16.1667 200.375 16.167 200.375 16.1673L200.375 16.168L200.374 16.1694L200.374 16.1725L200.372 16.1795L200.368 16.197L200.357 16.2461C200.348 16.2849 200.337 16.3361 200.322 16.3994C200.292 16.5261 200.25 16.7012 200.195 16.9233C200.117 17.2323 200.013 17.6323 199.879 18.1187C199.761 21.8097 199.223 29.0465 197.024 38.4779C192.931 56.1856 183.047 81.6552 159.303 105.575L159.272 105.606C150.271 114.53 141.014 122.453 131.956 129.104C134.465 134.51 135.499 140.098 135.48 145.602C135.529 159.71 128.624 173.253 122.259 182.838C119.016 187.722 115.778 191.777 113.349 194.615C112.132 196.037 111.111 197.161 110.387 197.938C110.024 198.327 109.735 198.629 109.531 198.84C109.429 198.945 109.349 199.027 109.291 199.086L109.223 199.155L109.201 199.177L109.194 199.184L109.191 199.187C109.191 199.187 109.191 199.188 109.037 199.035C109.037 199.036 109.037 199.036 109.036 199.036L109.189 199.189C107.169 201.209 103.939 201.346 101.755 199.505C100.432 198.39 99.7596 196.773 99.8017 195.154C99.7802 194.4 99.9138 193.633 100.217 192.9C100.218 192.896 100.22 192.891 100.222 192.887C100.222 192.887 100.222 192.886 100.222 192.886L100.225 192.88C100.236 192.851 100.258 192.795 100.289 192.712C100.352 192.547 100.45 192.276 100.571 191.911C100.814 191.178 101.145 190.074 101.461 188.68C102.097 185.874 102.652 181.989 102.365 177.635C101.863 170.026 98.8043 160.682 88.1801 152.868L85.8927 155.283C85.8587 155.319 85.8241 155.354 85.7891 155.389C83.0419 158.136 79.0273 158.815 75.6542 157.424L75.5891 157.489C74.9225 158.156 74.1856 158.634 73.4555 158.974C73.4085 159.142 73.3606 159.308 73.3123 159.469C72.7713 161.281 71.9354 163.43 71.0091 165.812L70.94 165.989L70.9398 165.99L70.8949 166.105C70.5123 167.089 70.1046 168.137 69.6703 169.278C67.5577 175.354 63.8479 179.037 60.5474 181.17C58.9162 182.224 57.4087 182.886 56.2727 183.293C55.7026 183.497 55.2186 183.64 54.8495 183.737C54.6646 183.785 54.5077 183.823 54.3821 183.85C54.3193 183.864 54.2642 183.876 54.2174 183.885C54.1939 183.89 54.1725 183.895 54.1532 183.898L54.1258 183.904L54.1132 183.906L54.1073 183.907C54.1044 183.908 54.1015 183.908 53.1 178.5M191.902 10.1125L56.9488 121.573M17.1081 109.78L17.1032 109.782L17.1201 109.775C17.1487 109.764 17.205 109.742 17.2878 109.711C17.4534 109.648 17.724 109.55 18.0894 109.429C18.8216 109.186 19.9254 108.855 21.3201 108.539C24.1257 107.903 28.0109 107.348 32.3643 107.635C39.9139 108.133 49.1717 111.148 56.9488 121.573M17.1081 109.78L56.9488 121.573M56.9488 121.573L54.6109 123.911C51.855 126.667 51.1811 130.869 52.5893 134.333L52.5109 134.411C51.8874 135.034 51.3958 135.736 51.0218 136.464C50.8052 136.521 50.5937 136.581 50.3879 136.641C48.542 137.181 46.3464 138.035 43.9142 138.981L43.7108 139.06L43.7101 139.06L43.5987 139.103C42.5916 139.495 41.5167 139.913 40.3443 140.359L40.3145 140.371C34.453 142.64 30.8347 146.301 28.6972 149.483C27.6404 151.056 26.952 152.499 26.5178 153.588C26.3001 154.134 26.1439 154.596 26.036 154.949C25.982 155.126 25.9398 155.276 25.9079 155.396C25.8919 155.456 25.8784 155.508 25.8674 155.553L25.8524 155.614L25.8462 155.64L25.8434 155.652L25.8421 155.658C25.8415 155.661 25.8408 155.663 31.2 156.9M31.2 156.9L25.8408 155.663C25.2696 158.139 26.4681 160.683 28.7403 161.819L31.2 156.9ZM31.2 156.9C28.7403 161.819 28.7415 161.82 28.7426 161.82L28.745 161.822L28.7499 161.824L28.7607 161.829L28.7857 161.842L28.8495 161.873C28.8981 161.896 28.9588 161.925 29.0312 161.958C29.1759 162.025 29.3678 162.111 29.6036 162.21C29.8833 162.328 30.2264 162.466 30.6274 162.614C29.7276 165.179 29.2656 167.586 29.0423 169.617C28.8338 171.515 28.8289 173.121 28.8802 174.283C28.906 174.865 28.946 175.341 28.9829 175.692C29.0013 175.867 29.019 176.012 29.0337 176.124C29.0378 176.154 29.0416 176.182 29.0451 176.207C29.0481 176.229 29.0509 176.248 29.0535 176.266L29.0612 176.319L29.0645 176.34L29.066 176.349L29.0666 176.354C29.067 176.356 29.0673 176.358 34.5 175.5M34.5 175.5L29.0673 176.358C29.4392 178.713 31.2868 180.561 33.6424 180.933L34.5 175.5ZM34.5 175.5C33.6424 180.933 33.6445 180.933 33.6466 180.933L33.651 180.934L33.6604 180.936L33.6817 180.939L33.734 180.947C33.7732 180.952 33.8209 180.959 33.8768 180.966C33.9886 180.981 34.1336 180.999 34.3095 181.017C34.661 181.054 35.138 181.094 35.7218 181.12C36.8861 181.171 38.4956 181.166 40.3965 180.956C42.4514 180.729 44.8887 180.258 47.4857 179.337C47.6009 179.64 47.7081 179.904 47.8021 180.126C47.8982 180.353 47.981 180.538 48.0456 180.677C48.0779 180.747 48.1057 180.806 48.1284 180.853L48.1584 180.915L48.1704 180.939L48.1756 180.95L48.178 180.954L48.1792 180.957C48.1797 180.958 48.1803 180.959 53.1 178.5M53.1 178.5L48.1803 180.959C49.2763 183.152 51.6911 184.354 54.1015 183.908L53.1 178.5ZM100.809 192.124C100.809 192.125 100.808 192.126 100.807 192.127C100.807 192.128 100.807 192.128 100.807 192.128C100.807 192.128 100.807 192.128 100.807 192.128C100.625 192.385 100.469 192.653 100.337 192.928L100.809 192.124Z" fill="white" filter="url(#shadow)" stroke="white" stroke-width="11" stroke-linejoin="round"/>
<path d="M41.7 155.1C53.7 143.1 54.9 140.1 62.4 147.6C69.9 155.1 66.9 156 54.9 168.3C45.9 177.3 34.5 175.5 34.5 175.5C34.5 175.5 32.7 164.1 41.7 155.1Z" fill="#FF9D27"/>
<path d="M64.5 167.4C69.3 154.8 70.8 153.3 63.9 149.4C57 145.5 57 148.2 52.5 160.8C48.9 170.1 53.1 178.5 53.1 178.5C53.1 178.5 61.2 177 64.5 167.4Z" fill="#FF9D27"/>
<path d="M57.6001 155.7C60.3001 148.8 60.3001 147.3 63.9001 149.4C67.8001 151.5 66.9001 152.4 64.2001 159.3C62.4001 164.4 57.9001 165.6 57.9001 165.6C57.9001 165.6 55.8001 161.1 57.6001 155.7Z" fill="#FDF516"/>
<path d="M60.3002 146.1C56.4002 139.2 54.9002 140.7 42.3002 145.5C33.0002 149.1 31.2002 156.9 31.2002 156.9C31.2002 156.9 39.6002 161.1 48.9002 157.5C61.5002 152.7 64.2002 152.7 60.3002 146.1Z" fill="#FF9D27"/>
<path d="M54.0001 152.4C60.9001 149.7 62.4001 149.7 60.3001 146.1C58.2001 142.2 57.3001 143.1 50.4001 145.8C45.3001 147.6 44.1001 152.1 44.1001 152.1C44.1001 152.1 48.9001 154.2 54.0001 152.4Z" fill="#FDF516"/>
<path d="M50.7001 151.8C57.3001 145.2 57.9001 143.4 62.1001 147.6C66.3001 151.8 64.5001 152.4 57.9001 159C52.8001 164.1 46.5001 162.9 46.5001 162.9C46.5001 162.9 45.9001 156.9 50.7001 151.8Z" fill="#FDF516"/>
<path d="M64.5 123C45.9 91.7997 15 104.7 15 104.7C15 104.7 59.1 60.5997 88.8 90.2997L64.5 123Z" fill="#3BAACF"/>
<path d="M78.9 99.8997L88.5 90.2997C59.1 60.5997 15 104.7 15 104.7C15 104.7 53.7 77.0997 78.9 99.8997Z" fill="#428BC1"/>
<path d="M87 145.5C118.2 164.1 105.3 195 105.3 195C105.3 195 149.4 150.9 119.7 121.2L87 145.5Z" fill="#3BAACF"/>
<path d="M110.1 131.1L119.7 121.5C149.4 151.2 105.3 195.3 105.3 195.3C105.3 195.3 132.9 156.3 110.1 131.1Z" fill="#428BC1"/>
<path d="M155.4 101.7C120.3 136.5 81.6 155.4 68.1 141.9C54.6 128.4 73.5 89.6997 108.3 54.5997C149.1 13.7997 194.4 15.5997 194.4 15.5997C194.4 15.5997 195.9 60.8997 155.4 101.7Z" fill="#C5D0D8"/>
<path d="M146.4 91.8C111.6 126.6 76.7998 149.4 68.6998 141.3C60.5998 133.2 83.3998 98.4 118.2 63.6C159 22.8 195 15 195 15C195 15 187.2 51 146.4 91.8Z" fill="#DAE3EA"/>
<path d="M81.9 151.5C80.4 153 78 153 76.5 151.5L58.5 133.5C57 132 57 129.3 58.5 127.8L63.9 122.4L87.3 145.8L81.9 151.5Z" fill="#C94747"/>
<path d="M76.7999 146.1C75.2999 147.6 73.4999 148.2 72.5999 147.3L62.3999 137.1C61.4999 136.2 62.0999 134.4 63.5999 132.9L68.9999 127.5L82.1999 140.7L76.7999 146.1Z" fill="#F15744"/>
<path d="M71.7001 153.6C70.8001 154.5 68.7001 154.5 67.8001 153.6L56.1001 141.9C55.2001 141 55.5001 139.2 56.4001 138.3L60.0001 134.7L75.3001 150L71.7001 153.6Z" fill="#3E4347"/>
<path d="M69.3001 151.2C68.4001 152.1 66.6001 152.4 66.0001 151.8L57.9001 143.7C57.3001 143.1 57.6001 141.6 58.8001 140.7L62.4001 137.1L72.9001 147.6L69.3001 151.2Z" fill="#62727A"/>
<path d="M194.4 15.6002C194.4 15.6002 178.2 15.0002 156.3 23.4002L186.6 53.7002C195 31.8002 194.4 15.6002 194.4 15.6002Z" fill="#C94747"/>
<path d="M194.4 15.5996C194.4 15.5996 181.5 18.2996 162 29.3996L180.6 47.9996C191.7 28.4996 194.4 15.5996 194.4 15.5996Z" fill="#F15744"/>
<path d="M139.5 85.5C147.784 85.5 154.5 78.784 154.5 70.5C154.5 62.216 147.784 55.5 139.5 55.5C131.216 55.5 124.5 62.216 124.5 70.5C124.5 78.784 131.216 85.5 139.5 85.5Z" fill="#EDF4F9"/>
<path d="M139.5 80.3996C144.968 80.3996 149.4 75.9666 149.4 70.4996C149.4 65.0316 144.968 60.5996 139.5 60.5996C134.032 60.5996 129.6 65.0316 129.6 70.4996C129.6 75.9666 134.032 80.3996 139.5 80.3996Z" fill="#3BAACF"/>
<path d="M109.5 115.5C117.784 115.5 124.5 108.784 124.5 100.5C124.5 92.216 117.784 85.5 109.5 85.5C101.216 85.5 94.5 92.216 94.5 100.5C94.5 108.784 101.216 115.5 109.5 115.5Z" fill="#EDF4F9"/>
<path d="M109.5 110.4C114.968 110.4 119.4 105.967 119.4 100.5C119.4 95.0316 114.968 90.5996 109.5 90.5996C104.032 90.5996 99.6001 95.0316 99.6001 100.5C99.6001 105.967 104.032 110.4 109.5 110.4Z" fill="#3BAACF"/>
<path d="M155.7 29.6998C154.8 30.5998 153 30.5998 152.1 29.6998C151.2 28.7998 151.2 26.9998 152.1 26.0998C153 25.1998 154.8 25.1998 155.7 26.0998C156.6 26.9998 156.6 28.7998 155.7 29.6998ZM160.8 37.1998C161.436 37.1998 162.047 36.9469 162.497 36.4967C162.947 36.0465 163.2 35.436 163.2 34.7993C163.2 34.1627 162.947 33.5521 162.497 33.1019C162.047 32.6517 161.436 32.3988 160.8 32.3988C160.163 32.3988 159.553 32.6517 159.103 33.1017C158.653 33.5518 158.4 34.1623 158.4 34.7988C158.4 35.4353 158.653 36.0458 159.103 36.4959C159.553 36.9459 160.163 37.1998 160.8 37.1998ZM168 44.3998C168.636 44.3998 169.247 44.1469 169.697 43.6967C170.147 43.2465 170.4 42.636 170.4 41.9993C170.4 41.3627 170.147 40.7521 169.697 40.3019C169.247 39.8517 168.636 39.5988 168 39.5988C167.363 39.5988 166.753 39.8517 166.303 40.3017C165.853 40.7518 165.6 41.3623 165.6 41.9988C165.6 42.6353 165.853 43.2458 166.303 43.6959C166.753 44.1459 167.363 44.3988 168 44.3988V44.3998ZM174.9 51.5998C175.215 51.5998 175.527 51.5377 175.818 51.4171C176.109 51.2965 176.374 51.1197 176.597 50.8969C176.82 50.674 176.996 50.4094 177.117 50.1182C177.238 49.8271 177.3 49.515 177.3 49.1998C177.3 48.8846 177.238 48.5725 177.117 48.2814C176.996 47.9902 176.82 47.7256 176.597 47.5027C176.374 47.2799 176.109 47.1031 175.818 46.9825C175.527 46.8619 175.215 46.7998 174.9 46.7998C174.263 46.7998 173.653 47.0527 173.203 47.5027C172.753 47.9528 172.5 48.5633 172.5 49.1998C172.5 49.8363 172.753 50.4468 173.203 50.8969C173.653 51.3469 174.263 51.5998 174.9 51.5998ZM182.1 58.4998C182.415 58.4998 182.727 58.4377 183.018 58.3171C183.309 58.1965 183.574 58.0197 183.797 57.7969C184.02 57.574 184.196 57.3094 184.317 57.0182C184.438 56.7271 184.5 56.415 184.5 56.0998C184.5 55.7846 184.438 55.4725 184.317 55.1814C184.196 54.8902 184.02 54.6256 183.797 54.4027C183.574 54.1799 183.309 54.0031 183.018 53.8825C182.727 53.7619 182.415 53.6998 182.1 53.6998C181.463 53.6998 180.853 53.9527 180.403 54.4027C179.953 54.8528 179.7 55.4633 179.7 56.0998C179.7 56.7363 179.953 57.3468 180.403 57.7969C180.853 58.247 181.463 58.4998 182.1 58.4998Z" fill="white"/>
</svg>
